<svg id="Capa_1" enable-background="new 0 0 512 512" height="512" viewBox="0 0 512 512" width="512" xmlns="http://www.w3.org/2000/svg"><g><path d="m361 52.5v-15c0-16.569-13.431-30-30-30h-30l30 30v15c0 16.569 13.431 30 30 30l30 30v-30c0-16.569-13.431-30-30-30z" fill="#ffe341"/><path d="m301 7.5h-120c-16.569 0-30 13.431-30 30v15c-16.569 0-30 13.431-30 30v30l30-30c16.569 0 30-13.431 30-30v-15h150c0-16.569-13.431-30-30-30z" fill="#fff1a0"/><path d="m444.5 233.5v271h30c16.569 0 30-13.431 30-30v-241z" fill="#ff4c3b"/><path d="m474.5 474.5v-241h-467v241c0 16.569 13.431 30 30 30h407c16.569 0 30-13.431 30-30z" fill="#ff6c4a"/><path d="m474.5 82.5h-30l-30 302h30c33.137 0 60-26.863 60-60v-212c0-16.569-13.431-30-30-30z" fill="#ff6c4a"/><path d="m444.5 82.5h-143.5l-45 45-45-45h-173.5c-16.569 0-30 13.431-30 30v212c0 33.137 26.863 60 60 60h347c33.137 0 60-26.863 60-60v-212c0-16.569-13.431-30-30-30z" fill="#ff8c59"/><path d="m271 369.5-15 105c24.853 0 45-20.147 45-45v-30z" fill="#ffe341"/><path d="m271 429.5v-60l-60 30v30c0 24.853 20.147 45 45 45 8.284 0 15-20.147 15-45z" fill="#fff1a0"/><path d="m256 67.5-15 219 30 113h30v-317c0-8.284-6.716-15-15-15z" fill="#ffa951"/><path d="m211 82.5v317h60v-317c0-8.284-6.716-15-15-15h-30c-8.284 0-15 6.716-15 15z" fill="#ffcd79"/><path d="m271 309.5v45h30c8.284 0 15-6.716 15-15v-15c0-8.284-6.716-15-15-15z" fill="#ff4c3b"/><path d="m196 324.5v15c0 8.284 6.716 15 15 15h60c8.284 0 15-6.716 15-15v-15c0-8.284-6.716-15-15-15h-60c-8.284 0-15 6.716-15 15z" fill="#ff6c4a"/><circle cx="256" cy="437" r="7.5"/><path d="m474.5 75h-76.763c-2.991-14.67-14.567-26.256-29.237-29.247v-8.253c0-20.678-16.822-37.5-37.5-37.5h-150c-20.678 0-37.5 16.822-37.5 37.5v8.253c-14.671 2.991-26.246 14.577-29.237 29.247h-76.763c-20.678 0-37.5 16.822-37.5 37.5v362c0 20.678 16.822 37.5 37.5 37.5h437c20.678 0 37.5-16.822 37.5-37.5v-362c0-20.678-16.822-37.5-37.5-37.5zm-323.5-15c4.143 0 7.5-3.357 7.5-7.5v-15c0-12.406 10.094-22.5 22.5-22.5h150c12.406 0 22.5 10.094 22.5 22.5v15c0 4.143 3.357 7.5 7.5 7.5 9.777 0 18.114 6.271 21.21 15h-21.21c-12.406 0-22.5-10.094-22.5-22.5v-15c0-4.143-3.357-7.5-7.5-7.5h-150c-4.143 0-7.5 3.357-7.5 7.5v15c0 12.406-10.094 22.5-22.5 22.5h-21.21c3.096-8.729 11.433-15 21.21-15zm156.21 15c-3.096-8.729-11.433-15-21.21-15h-60c-9.777 0-18.114 6.271-21.21 15h-23.81c4.719-6.272 7.52-14.064 7.52-22.5v-7.5h135v7.5c0 8.436 2.801 16.228 7.52 22.5zm-88.71 287h75v30h-75zm82.5-15h-90c-4.136 0-7.5-3.364-7.5-7.5v-15c0-4.136 3.364-7.5 7.5-7.5h90c4.136 0 7.5 3.364 7.5 7.5v15c0 4.136-3.364 7.5-7.5 7.5zm-7.5-45h-75v-219.5c0-4.136 3.364-7.5 7.5-7.5h60c4.136 0 7.5 3.364 7.5 7.5zm-278.5-189.5c0-12.406 10.094-22.5 22.5-22.5h166v213.29c-8.729 3.096-15 11.433-15 21.21v15c0 9.777 6.271 18.114 15 21.21v16.29h-136c-28.948 0-52.5-23.552-52.5-52.5zm482 362c0 12.406-10.094 22.5-22.5 22.5h-437c-12.406 0-22.5-10.094-22.5-22.5v-107.639c12.384 15.319 31.313 25.139 52.5 25.139h136v7.5c0 4.143 3.357 7.5 7.5 7.5h82.5v22.5c0 20.678-16.822 37.5-37.5 37.5s-37.5-16.822-37.5-37.5c0-4.143-3.357-7.5-7.5-7.5s-7.5 3.357-7.5 7.5c0 28.948 23.552 52.5 52.5 52.5s52.5-23.552 52.5-52.5v-37.5h136c21.187 0 40.116-9.82 52.5-25.139zm-52.5-97.5h-136v-16.29c8.729-3.096 15-11.433 15-21.21v-15c0-9.777-6.271-18.114-15-21.21v-213.29h166c12.406 0 22.5 10.094 22.5 22.5v212c0 28.948-23.552 52.5-52.5 52.5z"/></g></svg>